<svg xmlns="http://www.w3.org/2000/svg" xmlns:xlink="http://www.w3.org/1999/xlink" width="500" zoomAndPan="magnify" viewBox="0 0 375 374.999991" height="500" preserveAspectRatio="xMidYMid meet" version="1.0"><defs><g/></defs><g fill="#000000" fill-opacity="1"><g transform="translate(23.610296, 316.374599)"><g><path d="M 107.375 1.609375 C 89.257812 1.609375 75.566406 -3.398438 66.296875 -13.421875 C 57.023438 -23.441406 52.390625 -36.863281 52.390625 -53.6875 C 52.390625 -63.175781 53.789062 -74.710938 56.59375 -88.296875 L 76.640625 -180.78125 C 77.078125 -182.507812 78.101562 -187.253906 79.71875 -195.015625 C 81.332031 -202.773438 82.140625 -211.179688 82.140625 -220.234375 C 82.140625 -225.410156 81.113281 -229.289062 79.0625 -231.875 C 77.019531 -234.46875 74.273438 -235.765625 70.828125 -235.765625 C 64.359375 -235.765625 56.8125 -232.691406 48.1875 -226.546875 C 39.5625 -220.398438 30.503906 -210.96875 21.015625 -198.25 C 18.003906 -194.15625 14.664062 -192.109375 11 -192.109375 C 7.976562 -192.109375 5.332031 -193.5625 3.0625 -196.46875 C 0.800781 -199.375 -0.328125 -202.660156 -0.328125 -206.328125 C -0.328125 -213.015625 2.691406 -220.5625 8.734375 -228.96875 C 30.722656 -259.15625 56.488281 -274.25 86.03125 -274.25 C 99.175781 -274.25 109.46875 -270.257812 116.90625 -262.28125 C 124.34375 -254.300781 128.0625 -242.550781 128.0625 -227.03125 C 128.0625 -216.03125 127.304688 -205.894531 125.796875 -196.625 C 124.296875 -187.351562 121.710938 -174.742188 118.046875 -158.796875 L 104.78125 -99.609375 C 104.351562 -97.671875 103.597656 -94.222656 102.515625 -89.265625 C 101.441406 -84.304688 100.582031 -79.613281 99.9375 -75.1875 C 99.289062 -70.769531 98.96875 -66.40625 98.96875 -62.09375 C 98.96875 -55.195312 100.90625 -49.695312 104.78125 -45.59375 C 108.664062 -41.5 114.164062 -39.453125 121.28125 -39.453125 C 134.21875 -39.453125 147.3125 -46.347656 160.5625 -60.140625 C 173.820312 -73.941406 186.113281 -96.203125 197.4375 -126.921875 C 208.757812 -157.648438 217.546875 -196.945312 223.796875 -244.8125 C 225.304688 -255.8125 227.515625 -263.46875 230.421875 -267.78125 C 233.335938 -272.09375 239 -274.25 247.40625 -274.25 C 254.945312 -274.25 260.550781 -271.984375 264.21875 -267.453125 C 267.882812 -262.929688 269.71875 -255.601562 269.71875 -245.46875 C 269.71875 -239.644531 269.015625 -231.988281 267.609375 -222.5 C 266.210938 -213.019531 264.113281 -199.757812 261.3125 -182.71875 C 255.488281 -149.738281 250.851562 -119.445312 247.40625 -91.84375 C 245.675781 -79.34375 244.8125 -70.070312 244.8125 -64.03125 C 244.8125 -55.195312 246.804688 -48.460938 250.796875 -43.828125 C 254.785156 -39.191406 260.125 -36.875 266.8125 -36.875 C 273.925781 -36.875 280.878906 -39.242188 287.671875 -43.984375 C 294.460938 -48.722656 302.492188 -56.59375 311.765625 -67.59375 C 314.347656 -70.613281 317.257812 -72.125 320.5 -72.125 C 323.300781 -72.125 325.507812 -70.828125 327.125 -68.234375 C 328.738281 -65.648438 329.546875 -62.09375 329.546875 -57.5625 C 329.546875 -49.15625 327.5 -42.472656 323.40625 -37.515625 C 312.195312 -23.929688 301.09375 -14.015625 290.09375 -7.765625 C 279.101562 -1.515625 267.566406 1.609375 255.484375 1.609375 C 237.585938 1.609375 223.894531 -2.96875 214.40625 -12.125 C 204.925781 -21.289062 200.1875 -33.203125 200.1875 -47.859375 C 200.1875 -56.054688 201.910156 -72.015625 205.359375 -95.734375 C 194.578125 -64.035156 180.941406 -39.882812 164.453125 -23.28125 C 147.960938 -6.6875 128.9375 1.609375 107.375 1.609375 Z M 107.375 1.609375 "/></g></g></g></svg>